<mxfile host="65bd71144e">
    <diagram id="k9jkfTWH3dV4GA_9Pq45" name="ページ1">
        <mxGraphModel dx="1004" dy="509" grid="1" gridSize="10" guides="1" tooltips="1" connect="1" arrows="1" fold="1" page="1" pageScale="1" pageWidth="827" pageHeight="1169" math="0" shadow="0">
            <root>
                <mxCell id="0"/>
                <mxCell id="1" parent="0"/>
                <mxCell id="10" value="&lt;meta charset=&quot;utf-8&quot;&gt;&lt;div style=&quot;color: rgb(212, 212, 212); background-color: rgb(24, 24, 24); font-family: menlo, monaco, &amp;quot;courier new&amp;quot;, monospace; font-weight: normal; font-size: 12px; line-height: 18px;&quot;&gt;&lt;div&gt;&lt;span style=&quot;color: #808080&quot;&gt;&amp;lt;&lt;/span&gt;&lt;span style=&quot;color: #569cd6&quot;&gt;body&lt;/span&gt;&lt;span style=&quot;color: #808080&quot;&gt;&amp;gt;&lt;/span&gt;&lt;/div&gt;&lt;br&gt;&lt;div&gt;&lt;span style=&quot;color: #d4d4d4&quot;&gt;        &lt;/span&gt;&lt;span style=&quot;color: #808080&quot;&gt;&amp;lt;&lt;/span&gt;&lt;span style=&quot;color: #569cd6&quot;&gt;div&lt;/span&gt;&lt;span style=&quot;color: #d4d4d4&quot;&gt; &lt;/span&gt;&lt;span style=&quot;color: #9cdcfe&quot;&gt;class&lt;/span&gt;&lt;span style=&quot;color: #d4d4d4&quot;&gt;=&lt;/span&gt;&lt;span style=&quot;color: #d69d85&quot;&gt;&quot;container&quot;&lt;/span&gt;&lt;span style=&quot;color: #808080&quot;&gt;&amp;gt;&lt;/span&gt;&lt;/div&gt;&lt;div&gt;&lt;span style=&quot;color: #d4d4d4&quot;&gt;            &lt;/span&gt;&lt;span style=&quot;color: #808080&quot;&gt;&amp;lt;&lt;/span&gt;&lt;span style=&quot;color: #569cd6&quot;&gt;div&lt;/span&gt;&lt;span style=&quot;color: #d4d4d4&quot;&gt; &lt;/span&gt;&lt;span style=&quot;color: #9cdcfe&quot;&gt;class&lt;/span&gt;&lt;span style=&quot;color: #d4d4d4&quot;&gt;=&lt;/span&gt;&lt;span style=&quot;color: #d69d85&quot;&gt;&quot;w-75 mx-auto mt-5&quot;&lt;/span&gt;&lt;span style=&quot;color: #808080&quot;&gt;&amp;gt;&lt;/span&gt;&lt;/div&gt;&lt;div&gt;&lt;span style=&quot;color: #d4d4d4&quot;&gt;                {% &lt;/span&gt;&lt;span style=&quot;color: #569cd6&quot;&gt;block&lt;/span&gt;&lt;span style=&quot;color: #d4d4d4&quot;&gt; &lt;/span&gt;&lt;span style=&quot;color: #c8c8c8&quot;&gt;content&lt;/span&gt;&lt;span style=&quot;color: #d4d4d4&quot;&gt; %}{% &lt;/span&gt;&lt;span style=&quot;color: #569cd6&quot;&gt;endblock&lt;/span&gt;&lt;span style=&quot;color: #d4d4d4&quot;&gt; &lt;/span&gt;&lt;span style=&quot;color: #c8c8c8&quot;&gt;content&lt;/span&gt;&lt;span style=&quot;color: #d4d4d4&quot;&gt; %}&lt;/span&gt;&lt;/div&gt;&lt;br&gt;&lt;div&gt;&lt;span style=&quot;color: #d4d4d4&quot;&gt;            &lt;/span&gt;&lt;span style=&quot;color: #808080&quot;&gt;&amp;lt;/&lt;/span&gt;&lt;span style=&quot;color: #569cd6&quot;&gt;div&lt;/span&gt;&lt;span style=&quot;color: #808080&quot;&gt;&amp;gt;&lt;/span&gt;&lt;/div&gt;&lt;div&gt;&lt;span style=&quot;color: #d4d4d4&quot;&gt;        &lt;/span&gt;&lt;span style=&quot;color: #808080&quot;&gt;&amp;lt;/&lt;/span&gt;&lt;span style=&quot;color: #569cd6&quot;&gt;div&lt;/span&gt;&lt;span style=&quot;color: #808080&quot;&gt;&amp;gt;&lt;/span&gt;&lt;/div&gt;&lt;/div&gt;" style="text;whiteSpace=wrap;html=1;" vertex="1" parent="1">
                    <mxGeometry x="500" y="240" width="320" height="160" as="geometry"/>
                </mxCell>
                <mxCell id="16" style="edgeStyle=none;html=1;exitX=1;exitY=0.5;exitDx=0;exitDy=0;" edge="1" parent="1" source="11">
                    <mxGeometry relative="1" as="geometry">
                        <mxPoint x="490" y="326" as="targetPoint"/>
                        <Array as="points">
                            <mxPoint x="440" y="180"/>
                            <mxPoint x="440" y="326"/>
                        </Array>
                    </mxGeometry>
                </mxCell>
                <mxCell id="11" value="&lt;meta charset=&quot;utf-8&quot;&gt;&lt;div style=&quot;color: rgb(212, 212, 212); background-color: rgb(24, 24, 24); font-family: menlo, monaco, &amp;quot;courier new&amp;quot;, monospace; font-weight: normal; font-size: 12px; line-height: 18px;&quot;&gt;&lt;div&gt;&lt;span style=&quot;color: #d4d4d4&quot;&gt;{% &lt;/span&gt;&lt;span style=&quot;color: #569cd6&quot;&gt;extends&lt;/span&gt;&lt;span style=&quot;color: #d4d4d4&quot;&gt; &lt;/span&gt;&lt;span style=&quot;color: #d69d85&quot;&gt;'naonaoblog/base.html'&lt;/span&gt;&lt;span style=&quot;color: #d4d4d4&quot;&gt; %}&lt;/span&gt;&lt;/div&gt;&lt;br&gt;&lt;div&gt;&lt;span style=&quot;color: #d4d4d4&quot;&gt;{% &lt;/span&gt;&lt;span style=&quot;color: #569cd6&quot;&gt;block&lt;/span&gt;&lt;span style=&quot;color: #d4d4d4&quot;&gt; &lt;/span&gt;&lt;span style=&quot;color: #c8c8c8&quot;&gt;content&lt;/span&gt;&lt;span style=&quot;color: #d4d4d4&quot;&gt; %}&lt;/span&gt;&lt;/div&gt;&lt;br&gt;&lt;div&gt;&lt;span style=&quot;color: #d4d4d4&quot;&gt;    &lt;/span&gt;&lt;span style=&quot;color: #808080&quot;&gt;&amp;lt;&lt;/span&gt;&lt;span style=&quot;color: #569cd6&quot;&gt;h2&lt;/span&gt;&lt;span style=&quot;color: #808080&quot;&gt;&amp;gt;&lt;/span&gt;&lt;span style=&quot;color: #d4d4d4&quot;&gt;{{ &lt;/span&gt;&lt;span style=&quot;color: #c8c8c8&quot;&gt;post&lt;/span&gt;&lt;span style=&quot;color: #d4d4d4&quot;&gt;.&lt;/span&gt;&lt;span style=&quot;color: #c8c8c8&quot;&gt;title&lt;/span&gt;&lt;span style=&quot;color: #d4d4d4&quot;&gt; }}&lt;/span&gt;&lt;span style=&quot;color: #808080&quot;&gt;&amp;lt;/&lt;/span&gt;&lt;span style=&quot;color: #569cd6&quot;&gt;h2&lt;/span&gt;&lt;span style=&quot;color: #808080&quot;&gt;&amp;gt;&lt;/span&gt;&lt;/div&gt;&lt;div&gt;&lt;span style=&quot;color: #d4d4d4&quot;&gt;    &lt;/span&gt;&lt;span style=&quot;color: #808080&quot;&gt;&amp;lt;&lt;/span&gt;&lt;span style=&quot;color: #569cd6&quot;&gt;p&lt;/span&gt;&lt;span style=&quot;color: #808080&quot;&gt;&amp;gt;&lt;/span&gt;&lt;span style=&quot;color: #d4d4d4&quot;&gt;{{ &lt;/span&gt;&lt;span style=&quot;color: #c8c8c8&quot;&gt;post&lt;/span&gt;&lt;span style=&quot;color: #d4d4d4&quot;&gt;.&lt;/span&gt;&lt;span style=&quot;color: #c8c8c8&quot;&gt;created_at&lt;/span&gt;&lt;span style=&quot;color: #d4d4d4&quot;&gt; }}|{{ &lt;/span&gt;&lt;span style=&quot;color: #c8c8c8&quot;&gt;post&lt;/span&gt;&lt;span style=&quot;color: #d4d4d4&quot;&gt;.&lt;/span&gt;&lt;span style=&quot;color: #c8c8c8&quot;&gt;updated_at&lt;/span&gt;&lt;span style=&quot;color: #d4d4d4&quot;&gt; }}&lt;/span&gt;&lt;span style=&quot;color: #808080&quot;&gt;&amp;lt;/&lt;/span&gt;&lt;span style=&quot;color: #569cd6&quot;&gt;p&lt;/span&gt;&lt;span style=&quot;color: #808080&quot;&gt;&amp;gt;&lt;/span&gt;&lt;/div&gt;&lt;div&gt;&lt;span style=&quot;color: #d4d4d4&quot;&gt;    &lt;/span&gt;&lt;span style=&quot;color: #808080&quot;&gt;&amp;lt;&lt;/span&gt;&lt;span style=&quot;color: #569cd6&quot;&gt;hr&lt;/span&gt;&lt;span style=&quot;color: #808080&quot;&gt;&amp;gt;&lt;/span&gt;&lt;/div&gt;&lt;div&gt;&lt;span style=&quot;color: #d4d4d4&quot;&gt;    &lt;/span&gt;&lt;span style=&quot;color: #808080&quot;&gt;&amp;lt;&lt;/span&gt;&lt;span style=&quot;color: #569cd6&quot;&gt;p&lt;/span&gt;&lt;span style=&quot;color: #808080&quot;&gt;&amp;gt;&lt;/span&gt;&lt;span style=&quot;color: #d4d4d4&quot;&gt;{{ &lt;/span&gt;&lt;span style=&quot;color: #c8c8c8&quot;&gt;post&lt;/span&gt;&lt;span style=&quot;color: #d4d4d4&quot;&gt;.&lt;/span&gt;&lt;span style=&quot;color: #c8c8c8&quot;&gt;content&lt;/span&gt;&lt;span style=&quot;color: #d4d4d4&quot;&gt; }}&lt;/span&gt;&lt;span style=&quot;color: #808080&quot;&gt;&amp;lt;/&lt;/span&gt;&lt;span style=&quot;color: #569cd6&quot;&gt;p&lt;/span&gt;&lt;span style=&quot;color: #808080&quot;&gt;&amp;gt;&lt;/span&gt;&lt;/div&gt;&lt;br&gt;&lt;div&gt;&lt;span style=&quot;color: #d4d4d4&quot;&gt;{% &lt;/span&gt;&lt;span style=&quot;color: #569cd6&quot;&gt;endblock&lt;/span&gt;&lt;span style=&quot;color: #d4d4d4&quot;&gt; &lt;/span&gt;&lt;span style=&quot;color: #c8c8c8&quot;&gt;content&lt;/span&gt;&lt;span style=&quot;color: #d4d4d4&quot;&gt; %}&lt;/span&gt;&lt;/div&gt;&lt;/div&gt;" style="text;whiteSpace=wrap;html=1;" vertex="1" parent="1">
                    <mxGeometry x="30" y="80" width="390" height="200" as="geometry"/>
                </mxCell>
                <mxCell id="12" value="base.html" style="rounded=1;whiteSpace=wrap;html=1;" vertex="1" parent="1">
                    <mxGeometry x="500" y="180" width="120" height="60" as="geometry"/>
                </mxCell>
                <mxCell id="13" value="拡張させたいhtml" style="rounded=1;whiteSpace=wrap;html=1;" vertex="1" parent="1">
                    <mxGeometry x="30" y="10" width="120" height="60" as="geometry"/>
                </mxCell>
                <mxCell id="15" value="" style="rounded=1;whiteSpace=wrap;html=1;fillColor=none;" vertex="1" parent="1">
                    <mxGeometry x="10" y="115" width="390" height="155" as="geometry"/>
                </mxCell>
                <mxCell id="17" value="" style="rounded=1;whiteSpace=wrap;html=1;fillColor=none;" vertex="1" parent="1">
                    <mxGeometry x="490" y="315" width="320" height="30" as="geometry"/>
                </mxCell>
                <mxCell id="18" value="extends忘れない" style="rounded=1;whiteSpace=wrap;html=1;" vertex="1" parent="1">
                    <mxGeometry x="200" y="40" width="250" height="40" as="geometry"/>
                </mxCell>
            </root>
        </mxGraphModel>
    </diagram>
</mxfile>